<svg width="50" height="50" viewBox="0 0 50 50" fill="none" xmlns="http://www.w3.org/2000/svg">
<mask id="mask0_717_5918" style="mask-type:alpha" maskUnits="userSpaceOnUse" x="0" y="0" width="50" height="50">
<rect width="50" height="50" fill="#D9D9D9"/>
</mask>
<g mask="url(#mask0_717_5918)">
<path d="M10.6257 33.4377C9.86176 32.1182 9.28885 30.7641 8.9069 29.3752C8.52496 27.9863 8.33398 26.5627 8.33398 25.1043C8.33398 20.4516 9.94857 16.4932 13.1777 13.2293C16.4069 9.96544 20.3479 8.3335 25.0007 8.3335H25.3652L22.0319 5.00016L24.9486 2.0835L33.2819 10.4168L24.9486 18.7502L22.0319 15.8335L25.3652 12.5002H25.0007C21.5284 12.5002 18.577 13.7241 16.1465 16.172C13.7159 18.62 12.5007 21.5974 12.5007 25.1043C12.5007 26.0071 12.6048 26.8925 12.8132 27.7606C13.0215 28.6286 13.334 29.4793 13.7507 30.3127L10.6257 33.4377ZM25.0527 47.9168L16.7194 39.5835L25.0527 31.2502L27.9694 34.1668L24.6361 37.5002H25.0007C28.4729 37.5002 31.4243 36.2762 33.8548 33.8283C36.2854 31.3804 37.5007 28.4029 37.5007 24.896C37.5007 23.9932 37.3965 23.1078 37.1882 22.2397C36.9798 21.3717 36.6673 20.521 36.2507 19.6877L39.3757 16.5627C40.1395 17.8821 40.7125 19.2363 41.0944 20.6252C41.4763 22.0141 41.6673 23.4377 41.6673 24.896C41.6673 29.5488 40.0527 33.5071 36.8236 36.771C33.5944 40.0349 29.6534 41.6668 25.0007 41.6668H24.6361L27.9694 45.0002L25.0527 47.9168Z" fill="#1C1B1F"/>
</g>
</svg>
