<svg width="94" height="94" viewBox="0 0 94 94" fill="none" xmlns="http://www.w3.org/2000/svg">
<circle cx="47.2331" cy="46.7659" r="37.8806" fill="url(#paint0_linear_616_2208)"/>
<path d="M46.5307 75.5272C24.0829 75.5272 21.2769 52.8456 21.2769 52.8456C21.2769 52.8456 20.81 50.2733 24.0829 51.2088C29.8632 52.8611 37.6434 54.9064 46.5307 54.9501C55.6882 54.9951 63.0559 53.574 69.6799 51.2088C72.9543 50.0397 72.4859 52.8456 72.4859 52.8456C72.4859 52.8456 70.4226 75.5272 46.5307 75.5272Z" fill="#493248"/>
<path d="M24.5702 52.6722C22.4767 52.0633 23.3272 54.2284 23.3272 54.2284C23.3272 54.2284 24.2431 57.4761 24.5702 58.1527C24.8973 58.8293 25.6823 59.5735 27.3833 60.1148C29.0842 60.6561 38.7012 62.5505 47.533 62.5505C56.2184 62.5505 63.5613 60.7237 66.2435 60.0471C67.9701 59.6114 68.3998 59.1199 68.7296 58.6939C69.2529 58.0174 69.9071 56.6642 70.6268 54.2284C71.3464 51.7927 69.1221 52.7399 69.1221 52.7399C69.1221 52.7399 59.8323 55.9876 47.4022 55.9876C34.9722 55.9876 26.6636 53.2812 24.5702 52.6722Z" fill="#FBFBFB"/>
<ellipse cx="35.542" cy="38.1139" rx="4.20896" ry="5.37811" fill="#493248"/>
<ellipse cx="58.457" cy="38.1139" rx="4.20896" ry="5.37811" fill="#493248"/>
<defs>
<linearGradient id="paint0_linear_616_2208" x1="47.2331" y1="8.88525" x2="47.2331" y2="84.6465" gradientUnits="userSpaceOnUse">
<stop stop-color="#FCF050"/>
<stop offset="1" stop-color="#F1A23A"/>
</linearGradient>
</defs>
</svg>
