<svg xmlns="http://www.w3.org/2000/svg" width="60" height="60" fill="none" viewBox="0 0 60 60">
  <circle cx="30" cy="30" r="30" fill="url(#a)"/>
  <path fill="#000" d="M29.454 49.587c10.32 0 14.295-9.516 14.295-9.516 2.68-4.544-.436-5.436-1.763-4.567-9.419 4.077-13.54 4.832-25.42.435-.71-.207-3.626-.29-1.856 3.33 0 0 4.128 10.318 14.744 10.318Z"/>
  <path fill="#000" d="M29.454 49.587c10.32 0 14.295-9.516 14.295-9.516 2.68-4.544-.436-5.436-1.763-4.567-9.419 4.077-13.54 4.832-25.42.435-.71-.207-3.626-.29-1.856 3.33 0 0 4.128 10.318 14.744 10.318Z"/>
  <ellipse cx="40.612" cy="20.331" fill="#fff" rx=".262" ry=".248"/>
  <path fill="#000" d="M46.715 21.446c.262.372 1.047 1.515.393 2.231-.792.87-1.965-1.983-6.419-2.23-3.668-.205-5.272 1.584-6.288 1.859-.917.248-1.048-.62-.655-1.364 1.113-2.108 3.668-4.09 6.681-4.09s5.11 1.61 6.288 3.594Zm-23.313-1.24c.524.744 1.963 1.816 1.31 2.728-.793 1.107-1.965-1.364-6.026-1.488-3.537 0-5.627 2.625-6.42 1.488-.63-.905.262-1.984 1.048-2.728 1.18-1.363 3.538-2.355 5.11-2.355 1.64 0 3.013.372 4.978 2.355Z"/>
  <defs>
    <linearGradient id="a" x1="30" x2="30" y1="0" y2="60" gradientUnits="userSpaceOnUse">
      <stop stop-color="#FCF050"/>
      <stop offset="1" stop-color="#F1A23A"/>
    </linearGradient>
  </defs>
</svg>
