<svg xmlns="http://www.w3.org/2000/svg" width="56" height="60" fill="none" viewBox="0 0 56 60">
  <path fill="#FFDD67" d="M0 27.953c0 15.474 12.48 27.954 27.953 27.954 15.474 0 27.954-12.48 27.954-27.954S43.427 0 27.953 0 0 12.48 0 27.953Z"/>
  <path fill="#917524" d="M10.182 9.984c3.395-1.997 7.488-2.296 11.281-.998.5.2 1.298-1.697.7-1.897-4.294-1.597-8.986-1.198-12.979 1.098-.599.3.5 2.097.998 1.797Zm23.96 2.995c3.395-1.997 7.488-2.296 11.281-.998.5.2 1.298-1.697.7-1.897-4.294-1.597-8.986-1.198-12.98 1.098-.598.3.5 1.997 1 1.797Z"/>
  <path fill="#664E27" d="M20.067 32.645c5.092-1.298 10.682-.4 14.975 2.595 1.098.7-.898 3.494-1.997 2.696-2.895-1.897-7.387-3.295-12.08-2.097-1.197.3-2.196-2.795-.898-3.194Z"/>
  <path fill="#fff" d="M38.737 27.055c-4.093 0-7.487-3.395-7.487-7.488 0-1.697.599-3.294 1.498-4.492 1.697-.5 3.594-.699 5.59-.699 2.396 0 4.692.4 6.689 1.098.799 1.198 1.298 2.596 1.298 4.193a7.543 7.543 0 0 1-7.588 7.388Z"/>
  <path fill="#664E27" d="M39.734 14.376c.4.599.699 1.298.699 2.097a3.792 3.792 0 0 1-3.794 3.793 3.685 3.685 0 0 1-3.694-3.694c0-.599.1-1.098.4-1.597 1.497-.4 3.194-.599 4.991-.599h1.398Z"/>
  <path fill="#fff" d="M17.171 27.055c-4.093 0-7.487-3.395-7.487-7.488 0-1.697.599-3.294 1.497-4.492 1.697-.5 3.594-.699 5.59-.699 2.397 0 4.693.4 6.69 1.098.798 1.198 1.297 2.596 1.297 4.193-.1 4.093-3.494 7.388-7.587 7.388Z"/>
  <path fill="#664E27" d="M18.17 14.376c.4.599.699 1.298.699 2.096a3.792 3.792 0 0 1-3.794 3.794 3.792 3.792 0 0 1-3.794-3.794c0-.599.1-1.098.4-1.597 1.497-.4 3.194-.6 4.991-.6.6.1.999.1 1.498.1Z"/>
  <path fill="#fff" d="M28.552 41.93c-4.193.998-14.875 2.296-16.772.3-.898-.899-.698-2.197-.399-4.493.3-2.296-1.897-4.692-3.494-4.892-1.897-.2-2.995 1.198-2.296 3.195 1.397 4.492-1.398 5.89-1.598 9.184-.1 1.897-.698 5.092 2.197 9.185 3.294 4.592 8.985 4.692 10.981 4.592 2.297-.1 3.295-.2 3.794-1.198.6-1.198.3-1.497.6-1.896.498-.899.798-.8 1.097-1.897.3-1.098-.499-1.797-.3-2.296.4-1.198 1.398-.999.4-3.794 3.394-.5 5.59-.998 7.587-2.196 3.694-1.997.5-4.293-1.797-3.794Z"/>
  <path fill="#CCCFD4" d="M13.478 59.6c-3.394-.599-6.19-2.296-7.987-4.791-2.795-3.894-2.595-6.989-2.396-9.085v-.7c.1-1.397.5-2.495.999-3.593.698-1.597 1.297-2.895.499-5.291-.4-1.198-.3-2.396.499-3.195.699-.699 1.697-1.098 2.895-.898h.1c2.096.399 4.492 3.194 4.193 5.89-.3 2.196-.4 3.194.2 3.793.1.1.399.4 1.497.5 3.794.698 11.281-.4 14.376-1.099.5-.1 1.098-.1 1.697 0 1.498.3 2.596 1.198 2.895 2.297.1.698.1 1.996-1.996 3.194-1.997 1.098-4.093 1.697-6.989 2.097.8 1.996-1.098 2.695-.698 3.494.499 1.098.399 1.996-.7 3.095-.798.699.2 1.597-.598 2.995C21.065 59.8 19.568 59.9 17.37 60c-1.497-.1-2.695-.1-3.893-.4ZM5.89 35.141c.698 3.295.898 4.493-.3 7.188-1.797 3.594-2.496 13.777 8.186 15.674 6.49 1.198 7.488-.4 7.188-2.096-.2-1.098.7-1.498.999-1.897.699-1.198-.3-1.797-.3-2.296 0-.899.899-.899 1.098-1.797.3-1.598-1.697-2.197 0-2.297 3.295-.2 5.491-.798 7.388-2.096 1.797-1.198.5-3.694-1.897-3.195-5.59 1.198-13.976 2.596-16.772 0-1.298-1.198-.3-2.595-.4-5.29-.199-3.595-5.89-4.992-5.19-1.898Z"/>
</svg>
