<svg xmlns="http://www.w3.org/2000/svg" width="60" height="60" fill="none" viewBox="0 0 60 60">
  <circle cx="30" cy="30" r="30" fill="url(#a)"/>
  <path fill="#000" d="M29.39 51.428c10.276 0 14.234-9.61 14.234-9.61 2.67-4.59-.434-5.49-1.755-4.612-9.38 4.117-13.482 4.88-25.314.439-.705-.209-3.61-.293-1.848 3.363 0 0 4.111 10.42 14.682 10.42Z"/>
  <path fill="#000" d="M29.39 51.428c10.276 0 14.234-9.61 14.234-9.61 2.67-4.59-.434-5.49-1.755-4.612-9.38 4.117-13.482 4.88-25.314.439-.705-.209-3.61-.293-1.848 3.363 0 0 4.111 10.42 14.682 10.42Z"/>
  <ellipse cx="40.35" cy="23.117" fill="#fff" rx="9.432" ry="9.351"/>
  <path fill="#000" d="M44.803 22.987a4.25 4.25 0 0 1-1.048 2.798 4.329 4.329 0 0 1-3.276 1.488 4.329 4.329 0 0 1-3.311-1.531 4.247 4.247 0 0 1-1.012-2.755c0-2.367 1.936-4.286 4.323-4.286 2.388 0 4.324 1.919 4.324 4.286Zm-21.401-.26c.524.78 1.963 1.902 1.31 2.857-.793 1.16-1.965-1.428-6.026-1.558-3.537 0-5.627 2.75-6.42 1.558-.63-.948.262-2.078 1.048-2.857 1.18-1.428 3.538-2.467 5.11-2.467 1.64 0 3.013.39 4.978 2.467Z"/>
  <defs>
    <linearGradient id="a" x1="30" x2="30" y1="0" y2="60" gradientUnits="userSpaceOnUse">
      <stop stop-color="#FCF050"/>
      <stop offset="1" stop-color="#F1A23A"/>
    </linearGradient>
  </defs>
</svg>
